<?xml version="1.0" encoding="UTF-8"?>
<svg xmlns="http://www.w3.org/2000/svg" viewBox="0 360 1000 260">
  <defs>
    <style>
      .st0 { fill: #d4c5b0; }
      .st1 { fill: #2d6a6a; }
    </style>
  </defs>
  <g>
    <g>
      <g>
        <path class="st1" d="M136.79,380.42c-9.44,0-17.12,7.68-17.12,17.12s7.68,17.12,17.12,17.12,17.12-7.68,17.12-17.12-7.68-17.12-17.12-17.12Z"/>
        <path class="st1" d="M216.56,380.42c-9.44,0-17.12,7.68-17.12,17.12s7.68,17.12,17.12,17.12,17.12-7.68,17.12-17.12-7.68-17.12-17.12-17.12Z"/>
        <path class="st1" d="M176.68,448.73c-9.44,0-17.12,7.68-17.12,17.12s7.68,17.12,17.12,17.12,17.12-7.68,17.12-17.12-7.68-17.12-17.12-17.12Z"/>
        <path class="st1" d="M256.45,448.73c-9.44,0-17.12,7.68-17.12,17.12s7.68,17.12,17.12,17.12,17.12-7.68,17.12-17.12-7.68-17.12-17.12-17.12Z"/>
      </g>
      <g>
        <path class="st0" d="M57.01,380.42c-9.44,0-17.12,7.68-17.12,17.12s7.68,17.12,17.12,17.12,17.12-7.68,17.12-17.12-7.68-17.12-17.12-17.12Z"/>
        <path class="st0" d="M17.12,448.73c-9.44,0-17.12,7.68-17.12,17.12s7.68,17.12,17.12,17.12,17.12-7.68,17.12-17.12-7.68-17.12-17.12-17.12Z"/>
        <path class="st0" d="M96.9,448.73c-9.44,0-17.12,7.68-17.12,17.12s7.68,17.12,17.12,17.12,17.12-7.68,17.12-17.12-7.68-17.12-17.12-17.12Z"/>
        <path class="st0" d="M57.01,517.03c-9.44,0-17.12,7.68-17.12,17.12s7.68,17.12,17.12,17.12,17.12-7.68,17.12-17.12-7.68-17.12-17.12-17.12Z"/>
      </g>
      <g>
        <path class="st1" d="M136.79,517.03c-9.44,0-17.12,7.68-17.12,17.12s7.68,17.12,17.12,17.12,17.12-7.68,17.12-17.12-7.68-17.12-17.12-17.12Z"/>
        <path class="st1" d="M96.9,585.34c-9.44,0-17.12,7.68-17.12,17.12s7.68,17.12,17.12,17.12,17.12-7.68,17.12-17.12-7.68-17.12-17.12-17.12Z"/>
      </g>
      <g>
        <path class="st0" d="M216.56,517.03c-9.44,0-17.12,7.68-17.12,17.12s7.68,17.12,17.12,17.12,17.12-7.68,17.12-17.12-7.68-17.12-17.12-17.12Z"/>
        <path class="st0" d="M176.68,585.34c-9.44,0-17.12,7.68-17.12,17.12s7.68,17.12,17.12,17.12,17.12-7.68,17.12-17.12-7.68-17.12-17.12-17.12Z"/>
      </g>
    </g>
    <g>
      <g>
        <path class="st1" d="M337.58,428.33l21.36,43.59,21.26-43.59h14.95v67.96h-11.84l-.1-48.54-20.1,41.55h-8.45l-20.1-41.55v48.54h-12.04v-67.96h15.05Z"/>
        <path class="st1" d="M491.17,462.31c0,19.51-15.73,34.56-36.21,34.56s-36.21-15.05-36.21-34.56,15.73-34.37,36.21-34.37,36.21,14.85,36.21,34.37ZM432.05,462.31c0,12.81,10.58,22.91,23.11,22.91s22.72-10.1,22.72-22.91-10.29-22.72-22.72-22.72-23.11,9.9-23.11,22.72Z"/>
        <path class="st1" d="M527.77,428.33v29.03h33.88v-29.03h13.01v67.96h-13.01v-27.57h-33.88v27.57h-13.01v-67.96h13.01Z"/>
        <path class="st1" d="M653.4,428.33v11.36h-36.79v16.8h33.01v11.36h-33.01v17.09h37.96v11.36h-50.97v-67.96h49.8Z"/>
        <path class="st1" d="M692.24,428.33l35.05,46.5v-46.5h12.62v67.96h-12.33l-34.95-46.41v46.41h-12.72v-67.96h12.33Z"/>
        <path class="st1" d="M813.01,481.92h-33.2l-6.02,14.37h-13.49l29.8-67.96h13.49l29.42,67.96h-13.98l-6.02-14.37ZM808.35,470.75l-11.84-28.54-12.04,28.54h23.88Z"/>
        <path class="st1" d="M895.92,496.29l-11.75-20.1c-.78.1-1.55.1-2.43.1h-15.34v20h-13.01v-67.96h28.35c17.57,0,27.57,8.45,27.57,23.4,0,10.68-4.76,18.35-13.49,22.04l14.95,22.52h-14.85ZM866.41,464.83h15.34c9.71,0,15.14-4.17,15.14-12.72s-5.44-12.43-15.14-12.43h-15.34v25.15Z"/>
        <path class="st1" d="M980,481.92h-33.2l-6.02,14.37h-13.49l29.8-67.96h13.5l29.42,67.96h-13.98l-6.02-14.37ZM975.34,470.75l-11.84-28.54-12.04,28.54h23.88Z"/>
      </g>
      <g>
        <path class="st0" d="M351.38,571.63l-8.59-14.69c-.57.07-1.14.07-1.77.07h-11.21v14.62h-9.51v-49.68h20.73c12.85,0,20.16,6.17,20.16,17.1,0,7.81-3.48,13.41-9.87,16.11l10.93,16.47h-10.86ZM329.8,548.64h11.21c7.1,0,11.07-3.05,11.07-9.3s-3.97-9.08-11.07-9.08h-11.21v18.38Z"/>
        <path class="st0" d="M402.98,530.11c-9.37,0-16.68,7.24-16.68,16.47s7.31,16.54,16.68,16.54c4.76,0,9.79-2.2,13.49-5.82l5.61,6.25c-5.11,5.18-12.42,8.52-19.59,8.52-14.62,0-25.91-11-25.91-25.34s11.43-25.05,26.26-25.05c7.1,0,14.34,3.05,19.16,7.95l-5.54,6.96c-3.55-3.97-8.59-6.46-13.49-6.46Z"/>
        <path class="st0" d="M449.76,521.95l15.61,31.87,15.54-31.87h10.93v49.68h-8.66l-.07-35.49-14.69,30.38h-6.18l-14.69-30.38v35.49h-8.8v-49.68h11Z"/>
      </g>
    </g>
  </g>
</svg>
