<?xml version="1.0" encoding="UTF-8"?>
<svg id="Layer_1" xmlns="http://www.w3.org/2000/svg" version="1.1" viewBox="0 0 1000 1000">
  <!-- Generator: Adobe Illustrator 29.5.0, SVG Export Plug-In . SVG Version: 2.1.0 Build 137)  -->
  <defs>
    <style>
      .st0 {
        fill: #d4c5b0;
      }

      .st1 {
        fill: #2d6a6a;
      }
    </style>
  </defs>
  <g>
    <g>
      <path class="st1" d="M1426.11-586.62c-18.87,0-34.23,15.36-34.23,34.23s15.36,34.23,34.23,34.23,34.23-15.36,34.23-34.23-15.35-34.23-34.23-34.23Z"/>
      <path class="st1" d="M1585.6-586.62c-18.87,0-34.23,15.36-34.23,34.23s15.35,34.23,34.23,34.23,34.23-15.36,34.23-34.23-15.35-34.23-34.23-34.23Z"/>
      <path class="st1" d="M1505.86-450.06c-18.87,0-34.23,15.36-34.23,34.23s15.35,34.23,34.23,34.23,34.23-15.36,34.23-34.23-15.35-34.23-34.23-34.23Z"/>
      <path class="st1" d="M1665.35-450.06c-18.87,0-34.23,15.36-34.23,34.23s15.35,34.23,34.23,34.23,34.23-15.36,34.23-34.23-15.35-34.23-34.23-34.23Z"/>
    </g>
    <g>
      <path class="st0" d="M1266.62-586.62c-18.87,0-34.23,15.36-34.23,34.23s15.35,34.23,34.23,34.23,34.23-15.36,34.23-34.23-15.35-34.23-34.23-34.23Z"/>
      <path class="st0" d="M1186.87-450.06c-18.87,0-34.23,15.36-34.23,34.23s15.35,34.23,34.23,34.23,34.23-15.36,34.23-34.23-15.35-34.23-34.23-34.23Z"/>
      <path class="st0" d="M1346.36-450.06c-18.87,0-34.23,15.36-34.23,34.23s15.35,34.23,34.23,34.23,34.23-15.36,34.23-34.23-15.35-34.23-34.23-34.23Z"/>
      <path class="st0" d="M1266.62-313.5c-18.87,0-34.23,15.35-34.23,34.23s15.35,34.23,34.23,34.23,34.23-15.35,34.23-34.23-15.35-34.23-34.23-34.23Z"/>
    </g>
    <g>
      <path class="st1" d="M1426.11-313.5c-18.87,0-34.23,15.35-34.23,34.23s15.36,34.23,34.23,34.23,34.23-15.35,34.23-34.23-15.35-34.23-34.23-34.23Z"/>
      <path class="st1" d="M1346.36-176.95c-18.87,0-34.23,15.35-34.23,34.23s15.35,34.23,34.23,34.23,34.23-15.35,34.23-34.23-15.35-34.23-34.23-34.23Z"/>
    </g>
    <g>
      <path class="st0" d="M1585.6-313.5c-18.87,0-34.23,15.35-34.23,34.23s15.35,34.23,34.23,34.23,34.23-15.35,34.23-34.23-15.35-34.23-34.23-34.23Z"/>
      <path class="st0" d="M1505.86-176.95c-18.87,0-34.23,15.35-34.23,34.23s15.35,34.23,34.23,34.23,34.23-15.35,34.23-34.23-15.35-34.23-34.23-34.23Z"/>
    </g>
  </g>
  <g>
    <g>
      <path class="st1" d="M1827.54-490.84l42.7,87.15,42.51-87.15h29.89v135.87h-23.68l-.19-97.05-40.18,83.07h-16.89l-40.18-83.07v97.05h-24.07v-135.87h30.08Z"/>
      <path class="st1" d="M2134.6-422.91c0,39.01-31.44,69.1-72.4,69.1s-72.4-30.09-72.4-69.1,31.44-68.71,72.4-68.71,72.4,29.7,72.4,68.71ZM2016.4-422.91c0,25.62,21.16,45.81,46.19,45.81s45.42-20.19,45.42-45.81-20.57-45.42-45.42-45.42-46.19,19.8-46.19,45.42Z"/>
      <path class="st1" d="M2207.78-490.84v58.03h67.74v-58.03h26.01v135.87h-26.01v-55.12h-67.74v55.12h-26.01v-135.87h26.01Z"/>
      <path class="st1" d="M2458.94-490.84v22.71h-73.56v33.58h65.99v22.71h-65.99v34.16h75.89v22.71h-101.9v-135.87h99.57Z"/>
      <path class="st1" d="M2536.59-490.84l70.07,92.97v-92.97h25.23v135.87h-24.65l-69.87-92.78v92.78h-25.43v-135.87h24.65Z"/>
      <path class="st1" d="M2778.04-383.7h-66.38l-12.03,28.73h-26.98l59.59-135.87h26.98l58.81,135.87h-27.95l-12.03-28.73ZM2768.73-406.02l-23.68-57.06-24.07,57.06h47.75Z"/>
      <path class="st1" d="M2943.8-354.98l-23.48-40.18c-1.55.19-3.11.19-4.85.19h-30.67v39.98h-26.01v-135.87h56.68c35.13,0,55.12,16.89,55.12,46.78,0,21.35-9.51,36.69-26.98,44.06l29.89,45.03h-29.7ZM2884.8-417.86h30.67c19.41,0,30.28-8.35,30.28-25.43s-10.87-24.84-30.28-24.84h-30.67v50.27Z"/>
      <path class="st1" d="M3111.89-383.7h-66.38l-12.03,28.73h-26.98l59.59-135.87h26.98l58.81,135.87h-27.95l-12.03-28.73ZM3102.58-406.02l-23.68-57.06-24.07,57.06h47.75Z"/>
    </g>
    <g>
      <path class="st0" d="M1855.12-204.34l-17.17-29.37c-1.13.14-2.27.14-3.55.14h-22.42v29.23h-19.02v-99.33h41.43c25.68,0,40.3,12.34,40.3,34.2,0,15.61-6.95,26.82-19.72,32.21l21.85,32.92h-21.71ZM1811.98-250.31h22.42c14.19,0,22.14-6.1,22.14-18.59s-7.95-18.16-22.14-18.16h-22.42v36.75Z"/>
      <path class="st0" d="M1958.29-287.35c-18.73,0-33.35,14.47-33.35,32.92s14.62,33.06,33.35,33.06c9.51,0,19.58-4.4,26.96-11.63l11.21,12.49c-10.22,10.36-24.83,17.03-39.16,17.03-29.23,0-51.79-22-51.79-50.66s22.85-50.09,52.5-50.09c14.19,0,28.66,6.1,38.31,15.89l-11.07,13.91c-7.09-7.95-17.17-12.91-26.96-12.91Z"/>
      <path class="st0" d="M2051.81-303.67l31.22,63.71,31.08-63.71h21.85v99.33h-17.31l-.14-70.95-29.37,60.73h-12.35l-29.37-60.73v70.95h-17.6v-99.33h22Z"/>
    </g>
  </g>
  <g>
    <g>
      <g>
        <path class="st1" d="M421-342.22c-4.73,0-8.57,3.85-8.57,8.57s3.85,8.57,8.57,8.57,8.57-3.85,8.57-8.57-3.85-8.57-8.57-8.57Z"/>
        <circle class="st1" cx="460.95" cy="-333.65" r="8.57"/>
        <circle class="st1" cx="440.98" cy="-299.44" r="8.57"/>
        <circle class="st1" cx="480.92" cy="-299.44" r="8.57"/>
      </g>
      <g>
        <circle class="st0" cx="381.05" cy="-333.65" r="8.57"/>
        <circle class="st0" cx="361.08" cy="-299.44" r="8.57"/>
        <circle class="st0" cx="401.03" cy="-299.44" r="8.57"/>
        <circle class="st0" cx="381.05" cy="-265.24" r="8.57"/>
      </g>
      <g>
        <path class="st1" d="M421-273.81c-4.73,0-8.57,3.85-8.57,8.57s3.85,8.57,8.57,8.57,8.57-3.85,8.57-8.57-3.85-8.57-8.57-8.57Z"/>
        <circle class="st1" cx="401.03" cy="-231.04" r="8.57"/>
      </g>
      <g>
        <circle class="st0" cx="460.95" cy="-265.24" r="8.57"/>
        <circle class="st0" cx="440.98" cy="-231.04" r="8.57"/>
      </g>
    </g>
    <g>
      <g>
        <path class="st1" d="M521.55-318.23l10.7,21.83,10.65-21.83h7.49v34.03h-5.93l-.05-24.31-10.06,20.81h-4.23l-10.06-20.81v24.31h-6.03v-34.03h7.54Z"/>
        <path class="st1" d="M598.46-301.22c0,9.77-7.88,17.31-18.13,17.31s-18.13-7.54-18.13-17.31,7.88-17.21,18.13-17.21,18.13,7.44,18.13,17.21ZM568.85-301.22c0,6.42,5.3,11.47,11.57,11.47s11.38-5.06,11.38-11.47-5.15-11.38-11.38-11.38-11.57,4.96-11.57,11.38Z"/>
        <path class="st1" d="M616.79-318.23v14.54h16.97v-14.54h6.51v34.03h-6.51v-13.81h-16.97v13.81h-6.51v-34.03h6.51Z"/>
        <path class="st1" d="M679.7-318.23v5.69h-18.42v8.41h16.53v5.69h-16.53v8.56h19.01v5.69h-25.52v-34.03h24.94Z"/>
        <path class="st1" d="M699.14-318.23l17.55,23.29v-23.29h6.32v34.03h-6.17l-17.5-23.24v23.24h-6.37v-34.03h6.17Z"/>
        <path class="st1" d="M759.62-291.4h-16.63l-3.01,7.19h-6.76l14.92-34.03h6.76l14.73,34.03h-7l-3.01-7.19ZM757.29-296.99l-5.93-14.29-6.03,14.29h11.96Z"/>
        <path class="st1" d="M801.14-284.2l-5.88-10.06c-.39.05-.78.05-1.22.05h-7.68v10.01h-6.51v-34.03h14.2c8.8,0,13.81,4.23,13.81,11.72,0,5.35-2.38,9.19-6.76,11.04l7.49,11.28h-7.44ZM786.36-299.95h7.68c4.86,0,7.58-2.09,7.58-6.37s-2.72-6.22-7.58-6.22h-7.68v12.59Z"/>
        <path class="st1" d="M843.24-291.4h-16.63l-3.01,7.19h-6.76l14.92-34.03h6.76l14.73,34.03h-7l-3.01-7.19ZM840.91-296.99l-5.93-14.29-6.03,14.29h11.96Z"/>
      </g>
      <g>
        <path class="st0" d="M528.46-246.47l-4.3-7.36c-.28.04-.57.04-.89.04h-5.62v7.32h-4.76v-24.88h10.38c6.43,0,10.09,3.09,10.09,8.57,0,3.91-1.74,6.72-4.94,8.07l5.47,8.25h-5.44ZM517.65-257.99h5.62c3.55,0,5.54-1.53,5.54-4.66s-1.99-4.55-5.54-4.55h-5.62v9.21Z"/>
        <path class="st0" d="M554.3-267.26c-4.69,0-8.35,3.63-8.35,8.25s3.66,8.28,8.35,8.28c2.38,0,4.9-1.1,6.75-2.91l2.81,3.13c-2.56,2.59-6.22,4.27-9.81,4.27-7.32,0-12.97-5.51-12.97-12.69s5.72-12.55,13.15-12.55c3.55,0,7.18,1.53,9.6,3.98l-2.77,3.48c-1.78-1.99-4.3-3.23-6.75-3.23Z"/>
        <path class="st0" d="M577.72-271.35l7.82,15.96,7.78-15.96h5.47v24.88h-4.34l-.04-17.77-7.36,15.21h-3.09l-7.36-15.21v17.77h-4.41v-24.88h5.51Z"/>
      </g>
    </g>
  </g>
  <g>
    <g>
      <g>
        <path class="st1" d="M136.79,380.42c-9.44,0-17.12,7.68-17.12,17.12s7.68,17.12,17.12,17.12,17.12-7.68,17.12-17.12-7.68-17.12-17.12-17.12Z"/>
        <path class="st1" d="M216.56,380.42c-9.44,0-17.12,7.68-17.12,17.12s7.68,17.12,17.12,17.12,17.12-7.68,17.12-17.12-7.68-17.12-17.12-17.12Z"/>
        <path class="st1" d="M176.68,448.73c-9.44,0-17.12,7.68-17.12,17.12s7.68,17.12,17.12,17.12,17.12-7.68,17.12-17.12-7.68-17.12-17.12-17.12Z"/>
        <path class="st1" d="M256.45,448.73c-9.44,0-17.12,7.68-17.12,17.12s7.68,17.12,17.12,17.12,17.12-7.68,17.12-17.12-7.68-17.12-17.12-17.12Z"/>
      </g>
      <g>
        <path class="st0" d="M57.01,380.42c-9.44,0-17.12,7.68-17.12,17.12s7.68,17.12,17.12,17.12,17.12-7.68,17.12-17.12-7.68-17.12-17.12-17.12Z"/>
        <path class="st0" d="M17.12,448.73c-9.44,0-17.12,7.68-17.12,17.12s7.68,17.12,17.12,17.12,17.12-7.68,17.12-17.12-7.68-17.12-17.12-17.12Z"/>
        <path class="st0" d="M96.9,448.73c-9.44,0-17.12,7.68-17.12,17.12s7.68,17.12,17.12,17.12,17.12-7.68,17.12-17.12-7.68-17.12-17.12-17.12Z"/>
        <path class="st0" d="M57.01,517.03c-9.44,0-17.12,7.68-17.12,17.12s7.68,17.12,17.12,17.12,17.12-7.68,17.12-17.12-7.68-17.12-17.12-17.12Z"/>
      </g>
      <g>
        <path class="st1" d="M136.79,517.03c-9.44,0-17.12,7.68-17.12,17.12s7.68,17.12,17.12,17.12,17.12-7.68,17.12-17.12-7.68-17.12-17.12-17.12Z"/>
        <path class="st1" d="M96.9,585.34c-9.44,0-17.12,7.68-17.12,17.12s7.68,17.12,17.12,17.12,17.12-7.68,17.12-17.12-7.68-17.12-17.12-17.12Z"/>
      </g>
      <g>
        <path class="st0" d="M216.56,517.03c-9.44,0-17.12,7.68-17.12,17.12s7.68,17.12,17.12,17.12,17.12-7.68,17.12-17.12-7.68-17.12-17.12-17.12Z"/>
        <path class="st0" d="M176.68,585.34c-9.44,0-17.12,7.68-17.12,17.12s7.68,17.12,17.12,17.12,17.12-7.68,17.12-17.12-7.68-17.12-17.12-17.12Z"/>
      </g>
    </g>
    <g>
      <g>
        <path class="st1" d="M337.58,428.33l21.36,43.59,21.26-43.59h14.95v67.96h-11.84l-.1-48.54-20.1,41.55h-8.45l-20.1-41.55v48.54h-12.04v-67.96h15.05Z"/>
        <path class="st1" d="M491.17,462.31c0,19.51-15.73,34.56-36.21,34.56s-36.21-15.05-36.21-34.56,15.73-34.37,36.21-34.37,36.21,14.85,36.21,34.37ZM432.05,462.31c0,12.81,10.58,22.91,23.11,22.91s22.72-10.1,22.72-22.91-10.29-22.72-22.72-22.72-23.11,9.9-23.11,22.72Z"/>
        <path class="st1" d="M527.77,428.33v29.03h33.88v-29.03h13.01v67.96h-13.01v-27.57h-33.88v27.57h-13.01v-67.96h13.01Z"/>
        <path class="st1" d="M653.4,428.33v11.36h-36.79v16.8h33.01v11.36h-33.01v17.09h37.96v11.36h-50.97v-67.96h49.8Z"/>
        <path class="st1" d="M692.24,428.33l35.05,46.5v-46.5h12.62v67.96h-12.33l-34.95-46.41v46.41h-12.72v-67.96h12.33Z"/>
        <path class="st1" d="M813.01,481.92h-33.2l-6.02,14.37h-13.49l29.8-67.96h13.49l29.42,67.96h-13.98l-6.02-14.37ZM808.35,470.75l-11.84-28.54-12.04,28.54h23.88Z"/>
        <path class="st1" d="M895.92,496.29l-11.75-20.1c-.78.1-1.55.1-2.43.1h-15.34v20h-13.01v-67.96h28.35c17.57,0,27.57,8.45,27.57,23.4,0,10.68-4.76,18.35-13.49,22.04l14.95,22.52h-14.85ZM866.41,464.83h15.34c9.71,0,15.14-4.17,15.14-12.72s-5.44-12.43-15.14-12.43h-15.34v25.15Z"/>
        <path class="st1" d="M980,481.92h-33.2l-6.02,14.37h-13.49l29.8-67.96h13.5l29.42,67.96h-13.98l-6.02-14.37ZM975.34,470.75l-11.84-28.54-12.04,28.54h23.88Z"/>
      </g>
      <g>
        <path class="st0" d="M351.38,571.63l-8.59-14.69c-.57.07-1.14.07-1.77.07h-11.21v14.62h-9.51v-49.68h20.73c12.85,0,20.16,6.17,20.16,17.1,0,7.81-3.48,13.41-9.87,16.11l10.93,16.47h-10.86ZM329.8,548.64h11.21c7.1,0,11.07-3.05,11.07-9.3s-3.97-9.08-11.07-9.08h-11.21v18.38Z"/>
        <path class="st0" d="M402.98,530.11c-9.37,0-16.68,7.24-16.68,16.47s7.31,16.54,16.68,16.54c4.76,0,9.79-2.2,13.49-5.82l5.61,6.25c-5.11,5.18-12.42,8.52-19.59,8.52-14.62,0-25.91-11-25.91-25.34s11.43-25.05,26.26-25.05c7.1,0,14.34,3.05,19.16,7.95l-5.54,6.96c-3.55-3.97-8.59-6.46-13.49-6.46Z"/>
        <path class="st0" d="M449.76,521.95l15.61,31.87,15.54-31.87h10.93v49.68h-8.66l-.07-35.49-14.69,30.38h-6.18l-14.69-30.38v35.49h-8.8v-49.68h11Z"/>
      </g>
    </g>
  </g>
  <g>
    <g>
      <g>
        <path class="st1" d="M-426.04-358.92c-3.78,0-6.85,3.07-6.85,6.85s3.07,6.85,6.85,6.85,6.85-3.07,6.85-6.85-3.07-6.85-6.85-6.85Z"/>
        <circle class="st1" cx="-394.13" cy="-352.07" r="6.85"/>
        <circle class="st1" cx="-410.09" cy="-324.75" r="6.85"/>
        <circle class="st1" cx="-378.18" cy="-324.75" r="6.85"/>
      </g>
      <g>
        <circle class="st0" cx="-457.95" cy="-352.07" r="6.85"/>
        <circle class="st0" cx="-473.91" cy="-324.75" r="6.85"/>
        <circle class="st0" cx="-442" cy="-324.75" r="6.85"/>
        <circle class="st0" cx="-457.95" cy="-297.43" r="6.85"/>
      </g>
      <g>
        <path class="st1" d="M-426.04-304.27c-3.78,0-6.85,3.07-6.85,6.85s3.07,6.85,6.85,6.85,6.85-3.07,6.85-6.85-3.07-6.85-6.85-6.85Z"/>
        <circle class="st1" cx="-442" cy="-270.1" r="6.85"/>
      </g>
      <g>
        <circle class="st0" cx="-394.13" cy="-297.43" r="6.85"/>
        <circle class="st0" cx="-410.09" cy="-270.1" r="6.85"/>
      </g>
    </g>
    <g>
      <g>
        <path class="st1" d="M-345.73-339.76l8.54,17.44,8.5-17.44h5.98v27.18h-4.74l-.04-19.42-8.04,16.62h-3.38l-8.04-16.62v19.42h-4.82v-27.18h6.02Z"/>
        <path class="st1" d="M-284.29-326.16c0,7.81-6.29,13.82-14.49,13.82s-14.48-6.02-14.48-13.82,6.29-13.75,14.48-13.75,14.49,5.94,14.49,13.75ZM-307.94-326.16c0,5.13,4.23,9.16,9.24,9.16s9.09-4.04,9.09-9.16-4.12-9.09-9.09-9.09-9.24,3.96-9.24,9.09Z"/>
        <path class="st1" d="M-269.65-339.76v11.61h13.55v-11.61h5.2v27.18h-5.2v-11.03h-13.55v11.03h-5.2v-27.18h5.2Z"/>
        <path class="st1" d="M-219.4-339.76v4.54h-14.72v6.72h13.2v4.54h-13.2v6.83h15.18v4.54h-20.39v-27.18h19.92Z"/>
        <path class="st1" d="M-203.86-339.76l14.02,18.6v-18.6h5.05v27.18h-4.93l-13.98-18.56v18.56h-5.09v-27.18h4.93Z"/>
        <path class="st1" d="M-155.55-318.32h-13.28l-2.41,5.75h-5.4l11.92-27.18h5.4l11.77,27.18h-5.59l-2.41-5.75ZM-157.42-322.79l-4.74-11.42-4.82,11.42h9.55Z"/>
        <path class="st1" d="M-122.39-312.57l-4.7-8.04c-.31.04-.62.04-.97.04h-6.14v8h-5.2v-27.18h11.34c7.03,0,11.03,3.38,11.03,9.36,0,4.27-1.9,7.34-5.4,8.82l5.98,9.01h-5.94ZM-134.19-325.15h6.14c3.88,0,6.06-1.67,6.06-5.09s-2.17-4.97-6.06-4.97h-6.14v10.06Z"/>
        <path class="st1" d="M-88.76-318.32h-13.28l-2.41,5.75h-5.4l11.92-27.18h5.4l11.77,27.18h-5.59l-2.41-5.75ZM-90.62-322.79l-4.74-11.42-4.82,11.42h9.55Z"/>
      </g>
      <g>
        <path class="st0" d="M-340.21-282.43l-3.44-5.88c-.23.03-.45.03-.71.03h-4.49v5.85h-3.8v-19.87h8.29c5.14,0,8.06,2.47,8.06,6.84,0,3.12-1.39,5.37-3.95,6.44l4.37,6.59h-4.34ZM-348.84-291.63h4.49c2.84,0,4.43-1.22,4.43-3.72s-1.59-3.63-4.43-3.63h-4.49v7.35Z"/>
        <path class="st0" d="M-319.57-299.04c-3.75,0-6.67,2.9-6.67,6.59s2.92,6.61,6.67,6.61c1.9,0,3.92-.88,5.39-2.33l2.24,2.5c-2.04,2.07-4.97,3.41-7.84,3.41-5.85,0-10.36-4.4-10.36-10.14s4.57-10.02,10.5-10.02c2.84,0,5.73,1.22,7.67,3.18l-2.21,2.78c-1.42-1.59-3.44-2.58-5.39-2.58Z"/>
        <path class="st0" d="M-300.86-302.31l6.25,12.75,6.22-12.75h4.37v19.87h-3.46l-.03-14.2-5.88,12.15h-2.47l-5.88-12.15v14.2h-3.52v-19.87h4.4Z"/>
      </g>
    </g>
  </g>
  <g>
    <g>
      <g>
        <path class="st1" d="M-397.17-552.74c-3.02,0-5.48,2.46-5.48,5.48s2.46,5.48,5.48,5.48,5.48-2.46,5.48-5.48-2.46-5.48-5.48-5.48Z"/>
        <circle class="st1" cx="-371.65" cy="-547.26" r="5.48"/>
        <circle class="st1" cx="-384.41" cy="-525.41" r="5.48"/>
        <circle class="st1" cx="-358.89" cy="-525.41" r="5.48"/>
      </g>
      <g>
        <circle class="st0" cx="-422.69" cy="-547.26" r="5.48"/>
        <circle class="st0" cx="-435.45" cy="-525.41" r="5.48"/>
        <circle class="st0" cx="-409.93" cy="-525.41" r="5.48"/>
        <circle class="st0" cx="-422.69" cy="-503.56" r="5.48"/>
      </g>
      <g>
        <path class="st1" d="M-397.17-509.04c-3.02,0-5.48,2.46-5.48,5.48s2.46,5.48,5.48,5.48,5.48-2.46,5.48-5.48-2.46-5.48-5.48-5.48Z"/>
        <circle class="st1" cx="-409.93" cy="-481.71" r="5.48"/>
      </g>
      <g>
        <circle class="st0" cx="-371.65" cy="-503.56" r="5.48"/>
        <circle class="st0" cx="-384.41" cy="-481.71" r="5.48"/>
      </g>
    </g>
    <g>
      <g>
        <path class="st1" d="M-332.94-537.41l6.83,13.94,6.8-13.94h4.78v21.74h-3.79l-.03-15.53-6.43,13.29h-2.7l-6.43-13.29v15.53h-3.85v-21.74h4.81Z"/>
        <path class="st1" d="M-283.81-526.54c0,6.24-5.03,11.06-11.58,11.06s-11.58-4.81-11.58-11.06,5.03-10.99,11.58-10.99,11.58,4.75,11.58,10.99ZM-302.72-526.54c0,4.1,3.39,7.33,7.39,7.33s7.27-3.23,7.27-7.33-3.29-7.27-7.27-7.27-7.39,3.17-7.39,7.27Z"/>
        <path class="st1" d="M-272.1-537.41v9.29h10.84v-9.29h4.16v21.74h-4.16v-8.82h-10.84v8.82h-4.16v-21.74h4.16Z"/>
        <path class="st1" d="M-231.92-537.41v3.63h-11.77v5.37h10.56v3.63h-10.56v5.47h12.14v3.63h-16.3v-21.74h15.93Z"/>
        <path class="st1" d="M-219.49-537.41l11.21,14.88v-14.88h4.04v21.74h-3.94l-11.18-14.84v14.84h-4.07v-21.74h3.94Z"/>
        <path class="st1" d="M-180.86-520.27h-10.62l-1.93,4.6h-4.32l9.53-21.74h4.32l9.41,21.74h-4.47l-1.93-4.6ZM-182.35-523.84l-3.79-9.13-3.85,9.13h7.64Z"/>
        <path class="st1" d="M-154.34-515.67l-3.76-6.43c-.25.03-.5.03-.78.03h-4.91v6.4h-4.16v-21.74h9.07c5.62,0,8.82,2.7,8.82,7.48,0,3.42-1.52,5.87-4.32,7.05l4.78,7.2h-4.75ZM-163.78-525.74h4.91c3.11,0,4.84-1.34,4.84-4.07s-1.74-3.98-4.84-3.98h-4.91v8.04Z"/>
        <path class="st1" d="M-127.45-520.27h-10.62l-1.93,4.6h-4.32l9.53-21.74h4.32l9.41,21.74h-4.47l-1.93-4.6ZM-128.94-523.84l-3.79-9.13-3.85,9.13h7.64Z"/>
      </g>
      <g>
        <path class="st0" d="M-328.53-491.57l-2.75-4.7c-.18.02-.36.02-.57.02h-3.59v4.68h-3.04v-15.89h6.63c4.11,0,6.45,1.98,6.45,5.47,0,2.5-1.11,4.29-3.16,5.15l3.5,5.27h-3.47ZM-335.43-498.93h3.59c2.27,0,3.54-.98,3.54-2.97s-1.27-2.91-3.54-2.91h-3.59v5.88Z"/>
        <path class="st0" d="M-312.02-504.85c-3,0-5.34,2.32-5.34,5.27s2.34,5.29,5.34,5.29c1.52,0,3.13-.7,4.31-1.86l1.79,2c-1.63,1.66-3.97,2.72-6.27,2.72-4.68,0-8.29-3.52-8.29-8.11s3.66-8.01,8.4-8.01c2.27,0,4.59.98,6.13,2.54l-1.77,2.23c-1.14-1.27-2.75-2.07-4.31-2.07Z"/>
        <path class="st0" d="M-297.06-507.46l4.99,10.19,4.97-10.19h3.5v15.89h-2.77l-.02-11.35-4.7,9.72h-1.98l-4.7-9.72v11.35h-2.82v-15.89h3.52Z"/>
      </g>
    </g>
  </g>
  <g>
    <g>
      <path class="st1" d="M161.25-750.82c-.55,0-1,.45-1,1s.45,1,1,1,1-.45,1-1-.45-1-1-1Z"/>
      <circle class="st1" cx="165.92" cy="-749.82" r="1"/>
      <circle class="st1" cx="163.58" cy="-745.82" r="1"/>
      <circle class="st1" cx="168.25" cy="-745.82" r="1"/>
    </g>
    <g>
      <circle class="st0" cx="156.59" cy="-749.82" r="1"/>
      <circle class="st0" cx="154.26" cy="-745.82" r="1"/>
      <circle class="st0" cx="158.92" cy="-745.82" r="1"/>
      <circle class="st0" cx="156.59" cy="-741.83" r="1"/>
    </g>
    <g>
      <path class="st1" d="M161.25-742.83c-.55,0-1,.45-1,1s.45,1,1,1,1-.45,1-1-.45-1-1-1Z"/>
      <circle class="st1" cx="158.92" cy="-737.84" r="1"/>
    </g>
    <g>
      <circle class="st0" cx="165.92" cy="-741.83" r="1"/>
      <circle class="st0" cx="163.58" cy="-737.84" r="1"/>
    </g>
  </g>
  <g>
    <g>
      <path class="st1" d="M192.79-749.78c-1.1,0-2,.9-2,2s.9,2,2,2,2-.9,2-2-.9-2-2-2Z"/>
      <circle class="st1" cx="202.1" cy="-747.78" r="2"/>
      <circle class="st1" cx="197.44" cy="-739.81" r="2"/>
      <circle class="st1" cx="206.75" cy="-739.81" r="2"/>
    </g>
    <g>
      <circle class="st0" cx="183.48" cy="-747.78" r="2"/>
      <circle class="st0" cx="178.83" cy="-739.81" r="2"/>
      <circle class="st0" cx="188.14" cy="-739.81" r="2"/>
      <circle class="st0" cx="183.48" cy="-731.84" r="2"/>
    </g>
    <g>
      <path class="st1" d="M192.79-733.84c-1.1,0-2,.9-2,2s.9,2,2,2,2-.9,2-2-.9-2-2-2Z"/>
      <circle class="st1" cx="188.14" cy="-723.88" r="2"/>
    </g>
    <g>
      <circle class="st0" cx="202.1" cy="-731.84" r="2"/>
      <circle class="st0" cx="197.44" cy="-723.88" r="2"/>
    </g>
  </g>
  <g>
    <g>
      <path class="st1" d="M309.02-747.76c-2.21,0-4,1.79-4,4s1.79,4,4,4,4-1.79,4-4-1.79-4-4-4Z"/>
      <circle class="st1" cx="327.65" cy="-743.76" r="4"/>
      <circle class="st1" cx="318.34" cy="-727.81" r="4"/>
      <circle class="st1" cx="336.97" cy="-727.81" r="4"/>
    </g>
    <g>
      <circle class="st0" cx="290.39" cy="-743.76" r="4"/>
      <circle class="st0" cx="281.07" cy="-727.81" r="4"/>
      <circle class="st0" cx="299.7" cy="-727.81" r="4"/>
      <circle class="st0" cx="290.39" cy="-711.85" r="4"/>
    </g>
    <g>
      <path class="st1" d="M309.02-715.85c-2.21,0-4,1.79-4,4s1.79,4,4,4,4-1.79,4-4-1.79-4-4-4Z"/>
      <circle class="st1" cx="299.7" cy="-695.9" r="4"/>
    </g>
    <g>
      <circle class="st0" cx="327.65" cy="-711.85" r="4"/>
      <circle class="st0" cx="318.34" cy="-695.9" r="4"/>
    </g>
  </g>
  <g>
    <g>
      <path class="st1" d="M440.68-740.51c-6.21,0-11.27,5.05-11.27,11.27s5.05,11.27,11.27,11.27,11.27-5.05,11.27-11.27-5.05-11.27-11.27-11.27Z"/>
      <path class="st1" d="M493.17-740.51c-6.21,0-11.27,5.05-11.27,11.27s5.05,11.27,11.27,11.27,11.27-5.05,11.27-11.27-5.05-11.27-11.27-11.27Z"/>
      <path class="st1" d="M466.92-695.56c-6.21,0-11.27,5.05-11.27,11.27s5.05,11.27,11.27,11.27,11.27-5.05,11.27-11.27-5.05-11.27-11.27-11.27Z"/>
      <path class="st1" d="M519.41-695.56c-6.21,0-11.27,5.05-11.27,11.27s5.05,11.27,11.27,11.27,11.27-5.05,11.27-11.27-5.05-11.27-11.27-11.27Z"/>
    </g>
    <g>
      <path class="st0" d="M388.19-740.51c-6.21,0-11.27,5.05-11.27,11.27s5.05,11.27,11.27,11.27,11.27-5.05,11.27-11.27-5.05-11.27-11.27-11.27Z"/>
      <path class="st0" d="M361.94-695.56c-6.21,0-11.27,5.05-11.27,11.27s5.05,11.27,11.27,11.27,11.27-5.05,11.27-11.27-5.05-11.27-11.27-11.27Z"/>
      <path class="st0" d="M414.43-695.56c-6.21,0-11.27,5.05-11.27,11.27s5.05,11.27,11.27,11.27,11.27-5.05,11.27-11.27-5.05-11.27-11.27-11.27Z"/>
      <path class="st0" d="M388.19-650.62c-6.21,0-11.27,5.05-11.27,11.27s5.05,11.27,11.27,11.27,11.27-5.05,11.27-11.27-5.05-11.27-11.27-11.27Z"/>
    </g>
    <g>
      <path class="st1" d="M440.68-650.62c-6.21,0-11.27,5.05-11.27,11.27s5.05,11.27,11.27,11.27,11.27-5.05,11.27-11.27-5.05-11.27-11.27-11.27Z"/>
      <path class="st1" d="M414.43-605.68c-6.21,0-11.27,5.05-11.27,11.27s5.05,11.27,11.27,11.27,11.27-5.05,11.27-11.27-5.05-11.27-11.27-11.27Z"/>
    </g>
    <g>
      <path class="st0" d="M493.17-650.62c-6.21,0-11.27,5.05-11.27,11.27s5.05,11.27,11.27,11.27,11.27-5.05,11.27-11.27-5.05-11.27-11.27-11.27Z"/>
      <path class="st0" d="M466.92-605.68c-6.21,0-11.27,5.05-11.27,11.27s5.05,11.27,11.27,11.27,11.27-5.05,11.27-11.27-5.05-11.27-11.27-11.27Z"/>
    </g>
  </g>
  <g>
    <path class="st1" d="M1209.1-799.57l13.24,27.03,13.18-27.03h9.27v42.14h-7.34l-.06-30.1-12.46,25.76h-5.24l-12.46-25.76v30.1h-7.46v-42.14h9.33Z"/>
    <path class="st1" d="M1304.33-778.5c0,12.1-9.75,21.43-22.45,21.43s-22.45-9.33-22.45-21.43,9.75-21.31,22.45-21.31,22.45,9.21,22.45,21.31ZM1267.67-778.5c0,7.95,6.56,14.21,14.33,14.21s14.09-6.26,14.09-14.21-6.38-14.09-14.09-14.09-14.33,6.14-14.33,14.09Z"/>
    <path class="st1" d="M1327.03-799.57v18h21.01v-18h8.07v42.14h-8.07v-17.1h-21.01v17.1h-8.07v-42.14h8.07Z"/>
    <path class="st1" d="M1404.93-799.57v7.04h-22.81v10.41h20.47v7.04h-20.47v10.59h23.54v7.04h-31.6v-42.14h30.88Z"/>
    <path class="st1" d="M1429.01-799.57l21.73,28.83v-28.83h7.83v42.14h-7.65l-21.67-28.77v28.77h-7.89v-42.14h7.65Z"/>
    <path class="st1" d="M1503.89-766.34h-20.59l-3.73,8.91h-8.37l18.48-42.14h8.37l18.24,42.14h-8.67l-3.73-8.91ZM1501-773.27l-7.34-17.7-7.46,17.7h14.81Z"/>
    <path class="st1" d="M1555.3-757.43l-7.28-12.46c-.48.06-.96.06-1.5.06h-9.51v12.4h-8.07v-42.14h17.58c10.89,0,17.1,5.24,17.1,14.51,0,6.62-2.95,11.38-8.37,13.66l9.27,13.97h-9.21ZM1537-776.94h9.51c6.02,0,9.39-2.59,9.39-7.89s-3.37-7.71-9.39-7.71h-9.51v15.59Z"/>
    <path class="st1" d="M1607.43-766.34h-20.59l-3.73,8.91h-8.37l18.48-42.14h8.37l18.24,42.14h-8.67l-3.73-8.91ZM1604.54-773.27l-7.34-17.7-7.46,17.7h14.81Z"/>
  </g>
  <g>
    <path class="st0" d="M1217.66-710.71l-5.33-9.11c-.35.04-.7.04-1.1.04h-6.95v9.07h-5.9v-30.81h12.85c7.97,0,12.5,3.83,12.5,10.61,0,4.84-2.16,8.32-6.12,9.99l6.78,10.21h-6.73ZM1204.28-724.97h6.95c4.4,0,6.87-1.89,6.87-5.77s-2.46-5.63-6.87-5.63h-6.95v11.4Z"/>
    <path class="st0" d="M1249.65-736.46c-5.81,0-10.34,4.49-10.34,10.21s4.53,10.25,10.34,10.25c2.95,0,6.07-1.36,8.36-3.61l3.48,3.87c-3.17,3.21-7.7,5.28-12.15,5.28-9.07,0-16.06-6.82-16.06-15.71s7.09-15.54,16.28-15.54c4.4,0,8.89,1.89,11.88,4.93l-3.43,4.31c-2.2-2.46-5.33-4.01-8.36-4.01Z"/>
    <path class="st0" d="M1278.66-741.52l9.68,19.76,9.64-19.76h6.78v30.81h-5.37l-.04-22-9.11,18.84h-3.83l-9.11-18.84v22h-5.46v-30.81h6.82Z"/>
  </g>
</svg>